<svg width="24" height="32" viewBox="0 0 24 32" fill="none" xmlns="http://www.w3.org/2000/svg">
<path fill-rule="evenodd" clip-rule="evenodd" d="M11.4685 13.8431C11.5382 13.7715 11.6209 13.7147 11.712 13.676C11.8032 13.6372 11.9008 13.6172 11.9995 13.6172C12.0981 13.6172 12.1958 13.6372 12.2869 13.676C12.378 13.7147 12.4608 13.7715 12.5305 13.8431L21.5305 23.0681C21.6713 23.2124 21.7504 23.4082 21.7504 23.6124C21.7504 23.8165 21.6713 24.0123 21.5305 24.1566C21.3897 24.301 21.1986 24.3821 20.9995 24.3821C20.8003 24.3821 20.6093 24.301 20.4685 24.1566L11.9995 15.4744L3.53048 24.1566C3.38965 24.301 3.19865 24.3821 2.99948 24.3821C2.80032 24.3821 2.60931 24.301 2.46848 24.1566C2.32765 24.0123 2.24854 23.8165 2.24854 23.6124C2.24854 23.4082 2.32765 23.2124 2.46848 23.0681L11.4685 13.8431Z" fill="#0A5ACA"/>
<path fill-rule="evenodd" clip-rule="evenodd" d="M11.4685 7.69307C11.5382 7.62148 11.6209 7.56468 11.712 7.52593C11.8032 7.48717 11.9008 7.46722 11.9995 7.46722C12.0981 7.46722 12.1958 7.48717 12.2869 7.52593C12.378 7.56468 12.4608 7.62148 12.5305 7.69307L21.5305 16.9181C21.6713 17.0624 21.7504 17.2582 21.7504 17.4623C21.7504 17.6665 21.6713 17.8623 21.5305 18.0066C21.3897 18.151 21.1986 18.2321 20.9995 18.2321C20.8003 18.2321 20.6093 18.151 20.4685 18.0066L11.9995 9.32436L3.53048 18.0066C3.38965 18.151 3.19865 18.2321 2.99948 18.2321C2.80032 18.2321 2.60931 18.151 2.46848 18.0066C2.32765 17.8623 2.24854 17.6665 2.24854 17.4623C2.24854 17.2582 2.32765 17.0624 2.46848 16.9181L11.4685 7.69307Z" fill="#0A5ACA"/>
</svg>
