<svg width="444" height="354" viewBox="0 0 444 354" fill="none" xmlns="http://www.w3.org/2000/svg">
<path d="M222.043 353.843C344.492 353.843 443.754 351.307 443.754 348.179C443.754 345.051 344.492 342.515 222.043 342.515C99.5962 342.515 0.333313 345.051 0.333313 348.179C0.333313 351.307 99.5962 353.843 222.043 353.843Z" fill="#F5F8FF"/>
<path d="M279.742 0.416656H76.3425C73.3212 0.416656 70.8716 2.86624 70.8716 5.88749V139.775C70.8716 142.797 73.3212 145.246 76.3425 145.246H279.742C282.764 145.246 285.213 142.797 285.213 139.775V5.88749C285.213 2.86624 282.764 0.416656 279.742 0.416656Z" fill="url(#paint0_linear_2492_998)"/>
<path d="M275.179 94.7458H237.281C235.875 94.7458 234.735 95.8854 234.735 97.2912V138.42C234.735 139.826 235.875 140.965 237.281 140.965H275.179C276.585 140.965 277.725 139.826 277.725 138.42V97.2912C277.725 95.8854 276.585 94.7458 275.179 94.7458Z" fill="#FEBB94"/>
<path d="M134.543 94.3129H79.7274C78.537 94.3129 77.572 95.2779 77.572 96.4683V138.81C77.572 140 78.537 140.965 79.7274 140.965H134.543C135.734 140.965 136.699 140 136.699 138.81V96.4683C136.699 95.2779 135.734 94.3129 134.543 94.3129Z" fill="white"/>
<path d="M227.951 94.3129H143.753C142.288 94.3129 141.101 95.5004 141.101 96.965V138.313C141.101 139.778 142.288 140.965 143.753 140.965H227.951C229.415 140.965 230.603 139.778 230.603 138.313V96.965C230.603 95.5004 229.415 94.3129 227.951 94.3129Z" fill="white"/>
<path d="M274.322 19.3325H198.081C196.202 19.3325 194.678 20.8558 194.678 22.735V86.7487C194.678 88.6275 196.202 90.1508 198.081 90.1508H274.322C276.201 90.1508 277.725 88.6275 277.725 86.7487V22.735C277.725 20.8558 276.201 19.3325 274.322 19.3325Z" fill="#1C85E8"/>
<path d="M179.658 163.414C184.318 158.266 182.997 156.888 185.182 153.847C187.328 150.884 186.855 142.156 188.904 143.819C190.952 145.482 190.963 148.607 190.963 148.607C193.213 146.185 195.898 141.383 199.826 141.697C203.754 142.011 203.805 143.283 205.532 145.557C210.11 151.671 201.124 157.076 199.26 159.505C198.071 161.023 191.085 164.85 190.177 165.834L186.285 169.34L179.658 163.414Z" fill="#FFCCB3"/>
<path d="M194.678 149.881L201.326 142.46" stroke="#EF6A77" stroke-width="1.07832" stroke-linecap="round"/>
<path d="M197.373 151.982L204.296 145.246" stroke="#EF6A77" stroke-width="1.07832" stroke-linecap="round"/>
<path d="M200.602 154.364L204.623 150.244" stroke="#EF6A77" stroke-width="1.07832" stroke-linecap="round"/>
<path d="M109.859 205.07L70.8716 345.026H78.8137L123.878 205.07H109.859Z" fill="#D1E8F7"/>
<path d="M109.859 205.07L106.997 215.345L121.935 211.102L123.877 205.07H109.859Z" fill="#5CA4E6"/>
<path d="M386.892 316.507L365.771 344.585C365.275 345.246 364.533 345.683 363.717 345.799C362.896 345.915 362.062 345.7 361.404 345.203L359.442 343.728L384.313 310.663L386.275 312.137C386.938 312.635 387.371 313.375 387.488 314.195C387.604 315.014 387.392 315.846 386.892 316.507Z" fill="#5661AE"/>
<path d="M366.971 300.066L374.583 306.255L366.85 318.192L358.262 311.639L366.971 300.066Z" fill="#BC775C"/>
<path d="M370.35 303.081L360.867 313.427L358.558 311.606L367.442 300.692L370.35 303.081Z" fill="#93523E" stroke="#93523E"/>
<path d="M373.562 305.487C373.562 305.487 371.425 313.007 364.379 316.859L358.017 341.735C358.221 343.163 359.817 344.08 360.875 344.42C361.108 344.493 361.358 344.493 361.592 344.417C361.825 344.342 362.025 344.197 362.171 344L384.75 313.986C385.125 313.485 385.292 312.857 385.212 312.235C385.129 311.614 384.808 311.049 384.313 310.663C382.342 309.116 379.312 306.785 378.004 305.985C375.975 304.747 374.533 304.461 373.562 305.487Z" fill="#1C85E8"/>
<path d="M362.908 322.017L366.529 321.241C366.662 321.212 366.8 321.217 366.929 321.254C367.058 321.291 367.175 321.36 367.275 321.454C367.371 321.547 367.446 321.664 367.487 321.792C367.529 321.921 367.537 322.058 367.512 322.191C367.483 322.355 367.408 322.505 367.292 322.624C367.175 322.742 367.029 322.824 366.867 322.857L362.421 323.754L362.908 322.017Z" fill="white"/>
<path d="M362.054 325.959L365.654 325.174C365.787 325.145 365.925 325.15 366.054 325.187C366.183 325.224 366.304 325.293 366.4 325.387C366.5 325.48 366.571 325.597 366.612 325.725C366.654 325.854 366.662 325.991 366.642 326.124C366.612 326.287 366.533 326.438 366.417 326.557C366.304 326.676 366.154 326.757 365.992 326.79L361.608 327.699L362.054 325.959Z" fill="white"/>
<path d="M360.954 330.25L364.517 329.455C364.65 329.427 364.787 329.431 364.917 329.468C365.046 329.505 365.167 329.574 365.262 329.668C365.358 329.762 365.433 329.878 365.475 330.007C365.517 330.135 365.525 330.272 365.5 330.405C365.471 330.569 365.396 330.72 365.279 330.838C365.162 330.957 365.017 331.037 364.854 331.07L360.521 331.945L360.954 330.25Z" fill="white"/>
<path d="M294.588 267.345L354.867 315.909L368.617 299.884L315.913 250.438L294.588 267.345Z" fill="#1F2D49"/>
<path d="M326.92 260.764V293.393L354.867 315.909L358.879 290.747L326.92 260.764Z" fill="#0D1B33"/>
<path d="M299.937 178.062L290.029 257.073H317.732L341.796 178.458L299.937 178.062Z" fill="#1F2D49"/>
<path d="M323.724 237.5L328.377 198.302H339.817L323.724 237.5Z" fill="#0D1B33"/>
<path d="M348.592 346.381H313.457C312.63 346.381 311.836 346.052 311.251 345.467C310.665 344.881 310.337 344.087 310.337 343.26V340.807H351.713V343.26C351.713 344.087 351.383 344.881 350.8 345.467C350.212 346.052 349.421 346.381 348.592 346.381Z" fill="#5661AE"/>
<path d="M349.754 320.575L349.387 330.382L335.196 331.375L335.272 320.575H349.754Z" fill="#BC775C"/>
<path d="M349.379 325.091L335.409 323.73L335.476 320.792L349.537 321.33L349.379 325.091Z" fill="#93523E" stroke="#93523E"/>
<path d="M349.388 329.105C349.388 329.105 342.092 331.915 334.778 328.602L311.073 338.47C310.053 339.49 310.28 341.316 310.645 342.368C310.727 342.598 310.878 342.797 311.077 342.938C311.277 343.079 311.516 343.154 311.76 343.152H349.317C349.946 343.153 350.546 342.907 350.996 342.469C351.442 342.03 351.7 341.433 351.713 340.807C351.763 338.299 351.804 334.479 351.658 332.95C351.429 330.587 350.788 329.261 349.388 329.105Z" fill="#1C85E8"/>
<path d="M329.77 330.525L332.567 332.952C332.669 333.041 332.748 333.153 332.797 333.279C332.845 333.405 332.862 333.542 332.845 333.676C332.829 333.81 332.78 333.938 332.702 334.049C332.624 334.16 332.52 334.25 332.4 334.311C332.252 334.386 332.085 334.415 331.921 334.394C331.756 334.372 331.602 334.302 331.478 334.192L328.089 331.179L329.77 330.525Z" fill="white"/>
<path d="M326.106 332.212L328.899 334.618C329.001 334.707 329.08 334.819 329.129 334.945C329.177 335.072 329.194 335.208 329.177 335.342C329.161 335.477 329.112 335.605 329.034 335.715C328.956 335.826 328.852 335.916 328.732 335.977C328.584 336.052 328.417 336.081 328.253 336.06C328.088 336.039 327.934 335.968 327.81 335.858L324.448 332.902L326.106 332.212Z" fill="white"/>
<path d="M322.017 333.914L324.793 336.282C324.895 336.37 324.974 336.482 325.023 336.609C325.071 336.735 325.088 336.871 325.072 337.006C325.055 337.14 325.006 337.268 324.928 337.379C324.85 337.49 324.747 337.579 324.626 337.64C324.478 337.716 324.311 337.745 324.147 337.723C323.982 337.702 323.828 337.632 323.705 337.522L320.402 334.586L322.017 333.914Z" fill="white"/>
<path d="M358.604 178.458C358.375 182.465 358.375 186.481 358.604 190.488C359.525 203.44 356.579 241.262 356.604 246.238C356.625 251.215 353.35 321.313 353.35 321.313H333.432C333.432 321.313 328.34 261.07 328.222 254.176C328.105 247.282 326.92 178.741 326.92 178.741L358.604 178.458Z" fill="#1F2D49"/>
<path d="M299.337 182.846L358.604 190.488V178.458L299.645 180.397L299.337 182.846Z" fill="#0D1B33"/>
<path d="M303.881 270.925C311.531 270.925 317.732 264.723 317.732 257.073C317.732 249.423 311.531 243.222 303.881 243.222C296.231 243.222 290.03 249.423 290.03 257.073C290.03 264.723 296.231 270.925 303.881 270.925Z" fill="#1F2D49"/>
<path d="M407.104 198.302H43.4542V205.07H407.104V198.302Z" fill="url(#paint1_linear_2492_998)"/>
<path fill-rule="evenodd" clip-rule="evenodd" d="M217.955 337.902C212.581 336.004 207.043 334.047 201.938 334.41C201.822 334.417 201.71 334.45 201.609 334.505C201.508 334.56 201.42 334.637 201.351 334.73C201.283 334.822 201.235 334.929 201.211 335.042C201.188 335.155 201.189 335.272 201.215 335.384L203.354 344.417C203.398 344.603 203.508 344.767 203.663 344.878C203.818 344.989 204.009 345.04 204.199 345.022L238.912 341.67C241.472 341.423 242.707 339.907 242.89 337.818C242.895 337.747 242.879 337.675 242.845 337.612C242.81 337.549 242.758 337.497 242.695 337.463C242.631 337.429 242.56 337.414 242.488 337.42C242.416 337.425 242.348 337.451 242.29 337.495C238.46 340.367 233.658 341.627 228.91 341.004C225.483 340.563 221.76 339.247 217.955 337.902Z" fill="#5661AE"/>
<path fill-rule="evenodd" clip-rule="evenodd" d="M199.176 311.841C199.176 311.841 202.757 326.035 202.858 327.558C202.866 328.405 202.812 329.25 202.697 330.089C202.537 331.596 202.359 333.276 202.627 334.377C207.539 334.225 212.823 336.091 217.955 337.904C221.76 339.248 225.483 340.563 228.91 341.004C233.428 341.597 238.005 340.486 241.749 337.888C241.592 335.296 239.134 333.111 234.6 333.155C226.472 333.234 221.973 333.088 217.49 327.615C214.303 323.726 212.765 307.32 212.765 307.32L199.176 311.841Z" fill="#FFCCB3"/>
<path fill-rule="evenodd" clip-rule="evenodd" d="M216.453 325.349C214.955 325.699 208.997 327.067 203.183 328.013C202.054 328.197 201.695 330.53 202.549 331.69C203.138 332.547 203.656 333.45 204.099 334.391C206.125 334.51 208.132 334.84 210.09 335.372C209.057 333.16 210.161 331.712 212.29 331.188C213.972 330.775 218.029 330.705 220.13 330.697C220.245 330.697 220.358 330.663 220.455 330.6C220.552 330.537 220.629 330.449 220.677 330.344C220.725 330.239 220.742 330.122 220.725 330.008C220.71 329.894 220.661 329.786 220.586 329.699L217.05 325.546C216.979 325.461 216.885 325.398 216.779 325.363C216.674 325.328 216.561 325.323 216.453 325.349Z" fill="white"/>
<path fill-rule="evenodd" clip-rule="evenodd" d="M237.712 339.999C233.995 341.439 231.395 341.14 231.395 341.14L230.603 332.93L236.999 332.609L237.712 339.999Z" fill="white"/>
<path d="M195.795 254.572C201.96 252.723 205.46 246.225 203.61 240.06C201.761 233.894 195.263 230.395 189.097 232.244C182.932 234.094 179.432 240.591 181.282 246.757C183.131 252.923 189.629 256.422 195.795 254.572Z" fill="#FFCCB3"/>
<path d="M195.895 232.274L176.573 225.66L167.58 249.888L192.575 254.24L195.895 232.274Z" fill="#FFCCB3"/>
<path d="M204 241.86L213.808 315.16L201.085 319.563L181.85 249.967L204 241.86Z" fill="#FFCCB3"/>
<path fill-rule="evenodd" clip-rule="evenodd" d="M163.71 342.985C158.633 340.394 153.402 337.723 148.293 337.41C148.177 337.402 148.062 337.42 147.955 337.461C147.847 337.502 147.75 337.567 147.669 337.65C147.589 337.732 147.527 337.832 147.49 337.941C147.452 338.05 147.437 338.165 147.449 338.28L148.377 347.516C148.396 347.706 148.483 347.883 148.622 348.014C148.762 348.145 148.944 348.221 149.135 348.227L183.987 349.483C186.557 349.576 187.981 348.236 188.438 346.19C188.452 346.119 188.446 346.046 188.42 345.979C188.394 345.912 188.349 345.854 188.291 345.812C188.233 345.77 188.164 345.745 188.092 345.741C188.02 345.737 187.949 345.755 187.886 345.79C183.71 348.132 178.784 348.747 174.16 347.504C170.821 346.615 167.305 344.82 163.71 342.985Z" fill="#5661AE"/>
<path fill-rule="evenodd" clip-rule="evenodd" d="M148.532 314.674C148.532 314.674 150.21 329.216 150.109 330.74C150.005 331.58 149.841 332.411 149.616 333.227C149.258 334.7 148.86 336.341 148.98 337.468C153.87 337.965 158.861 340.512 163.709 342.986C167.305 344.821 170.821 346.615 174.16 347.504C178.56 348.687 183.244 348.19 187.297 346.109C187.485 343.519 185.336 341.029 180.835 340.474C172.768 339.48 168.328 338.742 164.605 332.726C161.959 328.45 162.599 311.985 162.599 311.985L148.532 314.674Z" fill="#FCBA9F"/>
<path fill-rule="evenodd" clip-rule="evenodd" d="M163.876 330.342C162.345 330.492 156.259 331.062 150.371 331.234C149.227 331.267 148.565 333.532 149.258 334.795C149.728 335.722 150.123 336.685 150.438 337.676C152.43 338.062 154.377 338.653 156.247 339.44C155.515 337.11 156.801 335.82 158.98 335.582C160.701 335.394 164.733 335.859 166.816 336.129C166.93 336.143 167.047 336.125 167.151 336.076C167.255 336.027 167.343 335.948 167.405 335.851C167.466 335.753 167.498 335.64 167.497 335.525C167.497 335.409 167.462 335.296 167.4 335.2L164.443 330.617C164.383 330.523 164.298 330.448 164.198 330.4C164.098 330.351 163.987 330.331 163.876 330.342Z" fill="white"/>
<path fill-rule="evenodd" clip-rule="evenodd" d="M183.018 347.669C179.143 348.606 176.606 347.967 176.606 347.967L176.903 339.724L183.286 340.249L183.018 347.669Z" fill="white"/>
<path d="M152.733 257.46C159.089 256.44 163.415 250.46 162.395 244.105C161.375 237.749 155.395 233.423 149.04 234.443C142.684 235.463 138.358 241.442 139.378 247.798C140.398 254.154 146.377 258.48 152.733 257.46Z" stroke="#5CA4E6" stroke-width="1.0969" stroke-miterlimit="10"/>
<path d="M162.543 245.941L162.599 319.894L149.406 322.58L139.518 251.055L162.543 245.941Z" fill="#FCBA9F"/>
<path d="M128.006 218.94C128.006 218.94 124.459 236.299 129.108 243.553C134.992 252.735 142.188 254.141 147.507 254.24L176.241 251.761C176.241 251.761 176.051 235.24 186.693 229.068C186.693 229.068 143.077 212.97 128.006 218.94Z" fill="#5661AE"/>
<path d="M116.945 130.379L114.662 142.036L101.452 141.14L103.983 128.749L116.945 130.379Z" fill="#FFCCB3"/>
<path d="M116.812 131.057L115.703 136.72C115.703 136.72 112.667 134.132 112.081 130.094L116.812 131.057Z" fill="#FCBA9F"/>
<path d="M97.3799 144.454C97.3799 144.454 100.389 136.604 102.184 137.557C106.452 139.822 112.685 139.402 115.445 138.041C117.098 137.225 117.161 144.454 117.161 144.454H97.3799Z" fill="#FEBB94"/>
<path d="M97.38 144.454L84.7033 146.152C84.3554 146.199 84.0396 146.379 83.8225 146.655C83.6054 146.931 83.5046 147.281 83.5413 147.63L92.3921 231.595L137.809 227.137L132.188 147.237L117.161 144.454H97.38Z" fill="#FEBB94"/>
<path d="M129.699 168.379L126.157 161.936L127.028 168.379H129.699Z" fill="#FF967C"/>
<path d="M131.4 147.091C136.189 147.826 140.204 151.017 141.545 153.805L153.393 180.795L182.485 157.528L190.755 166.239L164.604 198.548C159.345 205.475 150.248 208.325 144.052 199.292L134.153 183.744L131.4 147.091Z" fill="#FEBB94"/>
<path d="M153.392 180.795L156.702 187.302L159.222 176.133L153.392 180.795Z" fill="#FF967C"/>
<path d="M84.8004 146.139C84.8004 146.139 81.3796 146.079 78.5037 151.112C75.6275 156.144 63.98 186.629 63.98 186.629C63.98 186.629 58.6596 198.133 69.4446 198.564H92.0204L84.8004 146.139Z" fill="#FEBB94"/>
<path d="M87.3475 168.379L86.4025 164.157L84.0241 168.379H87.3475Z" fill="#FF967C"/>
<path d="M147.071 254.21H97.7671C96.2142 254.21 94.7133 253.65 93.5404 252.632C92.3671 251.615 91.6004 250.209 91.3808 248.672L80.9612 175.742C80.8308 174.827 80.8983 173.895 81.1591 173.008C81.42 172.122 81.8687 171.302 82.4741 170.603C83.0796 169.905 83.8283 169.345 84.6691 168.961C85.51 168.577 86.4233 168.379 87.3475 168.379H136.652C138.205 168.379 139.705 168.939 140.879 169.957C142.052 170.974 142.818 172.38 143.038 173.917L153.457 246.847C153.588 247.762 153.521 248.694 153.26 249.581C152.999 250.467 152.55 251.287 151.945 251.986C151.339 252.684 150.591 253.244 149.75 253.628C148.909 254.012 147.995 254.21 147.071 254.21Z" fill="#5CA4E6"/>
<path d="M143.748 254.21H181.507C181.831 254.21 182.15 254.125 182.43 253.962C182.71 253.799 182.943 253.565 183.103 253.283C183.264 253.002 183.348 252.683 183.345 252.359C183.343 252.034 183.255 251.717 183.09 251.437C182.961 251.219 182.789 251.03 182.584 250.882C182.378 250.733 182.145 250.629 181.897 250.575L151.331 243.93L143.748 254.21Z" fill="#5CA4E6"/>
<path d="M143.748 254.21H94.4437C92.8908 254.21 91.3899 253.65 90.217 252.632C89.0437 251.615 88.277 250.209 88.0574 248.672L77.6383 175.742C77.5074 174.827 77.5749 173.895 77.8358 173.008C78.0966 172.122 78.5453 171.302 79.1508 170.603C79.7562 169.905 80.5049 169.345 81.3458 168.961C82.1866 168.577 83.0999 168.379 84.0241 168.379H133.329C134.881 168.379 136.382 168.939 137.555 169.957C138.728 170.974 139.495 172.38 139.714 173.917L150.134 246.847C150.265 247.762 150.197 248.694 149.937 249.581C149.675 250.467 149.227 251.287 148.622 251.986C148.016 252.684 147.267 253.244 146.427 253.628C145.586 254.012 144.672 254.21 143.748 254.21Z" fill="url(#paint2_linear_2492_998)"/>
<path d="M345.108 187.186C345.108 187.186 342.446 192.216 341.796 192.793C341.15 193.371 330.449 194.69 328.377 195.433C326.305 196.175 325.315 197.297 325.315 198.303H350.467C350.467 198.303 351.117 197.696 351.587 195.762C352.054 193.829 352.875 193.009 352.875 193.009L345.108 187.186Z" fill="#BC775C"/>
<path d="M308.956 107.937C310.61 99.7712 306.72 99.9817 305.425 98.6833C305.425 98.6833 300.569 94.6783 296.868 98.4116C292.951 102.36 270.498 133.035 270.498 133.035L284.547 145.957L287.188 142.805L294.028 134.647L301.345 125.927L302.254 124.935L312.124 113.755C312.124 113.755 308.02 112.236 308.956 107.937Z" fill="#5661AE"/>
<path d="M314.832 109.329C316.725 103.675 313.677 97.5554 308.023 95.6617C302.368 93.7679 296.25 96.8162 294.355 102.47C292.462 108.125 295.51 114.244 301.165 116.138C306.819 118.032 312.938 114.983 314.832 109.329Z" fill="#5661AE"/>
<path d="M302.125 124.891C302.408 123.184 302.975 119.771 303.584 116.66L306.826 101.602C306.826 101.602 298.12 114.469 294.109 123.432C291.139 130.148 287.693 136.993 287.123 142.784L293.963 134.625L301.28 125.905L302.125 124.891Z" fill="#465393"/>
<path d="M256.465 98.5004C253.126 92.4113 254.73 91.3779 253.31 87.9133C251.911 84.5329 254.395 76.1525 252.017 77.295C249.639 78.4379 248.903 81.4746 248.903 81.4746C247.277 78.5971 245.779 73.3033 241.885 72.6975C237.991 72.0917 237.647 73.3171 235.439 75.1279C229.568 80.0133 237.055 87.355 238.305 90.1508C239.109 91.9033 245.016 97.2462 245.671 98.4137L248.644 102.727L256.465 98.5004Z" fill="#BC775C"/>
<path d="M244.994 81.8521L240.249 73.0917" stroke="#93523E" stroke-width="1.07832" stroke-linecap="round"/>
<path d="M241.885 83.2704L236.714 75.1121" stroke="#93523E" stroke-width="1.07832" stroke-linecap="round"/>
<path d="M238.192 84.8387L235.236 79.8979" stroke="#93523E" stroke-width="1.07832" stroke-linecap="round"/>
<path d="M246.166 89.5637C246.191 86.5304 248.012 82.86 248.012 82.86" stroke="#93523E" stroke-width="1.07832" stroke-linecap="round"/>
<path d="M284.666 132.791L256.097 94.7458C255.915 94.5225 255.657 94.3742 255.372 94.33C255.087 94.2854 254.796 94.3483 254.555 94.5058L247.074 99.4533C246.718 99.6942 246.465 100.058 246.363 100.475C246.262 100.892 246.318 101.333 246.523 101.71L269.497 144.079L284.666 132.791Z" fill="#5661AE"/>
<path d="M277.725 148.86C283.008 148.86 287.292 144.577 287.292 139.293C287.292 134.01 283.008 129.726 277.725 129.726C272.441 129.726 268.158 134.01 268.158 139.293C268.158 144.577 272.441 148.86 277.725 148.86Z" fill="#5661AE"/>
<path d="M317.698 90.0833C317.698 90.0833 303.75 94.5204 300.997 95.6712C298.245 96.8225 298.062 101.427 297.878 104.689C297.75 106.975 300.33 144.502 300.499 166.236C300.535 170.88 299.67 173.826 299.113 176.406C298.557 178.987 299.113 180.392 299.113 180.392L358.879 180.926C358.879 180.926 357.087 105.411 356.721 102.725C356.354 100.039 359.238 97.7254 356.113 96.3733L333.29 90.0833H317.698Z" fill="white"/>
<path d="M310.198 92.5054C310.198 92.5054 312.475 102.922 313.967 111.259C315.459 119.595 315.913 188.61 315.913 188.61C315.913 188.61 298.449 185.215 296.083 181.203C293.718 177.19 298.274 159.163 298.629 142.784C298.984 126.404 295.536 100.985 299.156 96.575C299.156 96.5754 300.084 95.655 310.198 92.5054Z" fill="#5661AE"/>
<path d="M339.55 91.8358C339.55 91.8358 331.264 109.101 331.77 114.363C332.277 119.625 332.306 164.5 331.77 173.87C331.438 179.569 330.569 185.225 329.177 190.762C329.177 190.762 351.783 192.362 360.517 189.628C360.517 189.628 364.667 163.522 361.942 154.195C359.221 144.869 357.142 96.3983 357.142 96.3983L339.55 91.8358Z" fill="#5661AE"/>
<path d="M345.667 115.037C345.667 115.037 346.512 146.327 346.337 156.756C346.229 163.255 338.796 166.008 338.775 169.771C338.762 171.997 344.642 169.391 346.229 171.693C347.812 173.994 345.104 181.203 345.104 181.203L358.879 180.926L364.4 154.148L352.771 113.427L345.667 115.037Z" fill="#465393"/>
<path d="M317.985 83.1092L316.691 97.6913C316.691 97.6913 316.346 99.9562 320.28 100.673C323.403 101.242 329.895 97.5713 331.36 96.3621C334.617 93.6746 334.917 92.0483 334.573 90.8029C334.08 89.0183 332.469 76.4433 332.469 76.4433L317.985 83.1092Z" fill="#BC775C"/>
<path d="M317.135 95.0429L317.932 86.055L324.875 82.6254L317.135 95.0429Z" fill="#93523E" stroke="#93523E"/>
<path d="M310.266 55.51C310.266 55.51 307.606 67.4237 307.252 75.5375C306.895 83.7237 309.82 85.2825 313.447 85.8937C316.307 86.3758 320.757 86.4108 323.555 85.0137C328.657 82.4658 337.033 76.2821 338.129 75.0825C339.829 73.225 339.712 64.9404 333.228 62.8917C328.513 61.4012 316.49 48.7492 310.266 55.51Z" fill="#BC775C"/>
<path d="M310.292 56.7804C314.16 58.2967 321.44 57.3004 325.439 58.5983C329.432 59.8996 325.799 61.2733 325.973 65.1313C326.085 67.63 326.275 72.405 327.808 72.3417C329.342 72.2787 330.245 66.8558 333.479 67.0625C336.712 67.2733 338.237 68.6542 338.165 70.7221C338.096 72.7863 335.772 74.585 333.939 75.54C331.645 76.7283 330.697 76.23 330.697 76.23C330.697 76.23 333.28 85.7383 333.67 85.3617C333.67 85.3617 336.455 83.7896 336.958 81.0375C336.958 81.0375 340.654 80.2367 339.837 76.5396C339.837 76.5396 342.137 75.8008 341.046 73.6604C341.046 73.6604 346.996 69.6596 343.896 64.7638C343.896 64.7638 346.717 61.9488 343.346 60.7583C343.346 60.7583 347.812 54.2325 341.458 52.8413C341.458 52.8413 341.883 49.7696 338.975 49.8867C338.975 49.8867 337.705 44.6033 331.359 46.6871C331.329 45.6292 330.98 44.605 330.357 43.7492C329.735 42.8933 328.867 42.2454 327.87 41.8908C324.276 40.4433 321.937 42.4354 321.937 42.4354C321.937 42.4354 318.165 39.3588 316.179 43.8696C316.179 43.8696 313.326 42.4113 311.187 43.9608C309.045 45.5054 310.086 48.7433 310.086 48.7433C310.086 48.7433 307.638 48.1696 306.745 50.1971C305.483 53.05 307.255 54.0896 307.255 54.0896C307.255 54.0896 303.27 58.8013 308.874 63.2642L310.292 56.7804Z" fill="#493212"/>
<path d="M320.027 68.5421C320.237 67.5783 319.896 66.6854 319.265 66.5475C318.633 66.4096 317.951 67.0792 317.741 68.0425C317.53 69.0058 317.871 69.8987 318.502 70.0367C319.134 70.1746 319.816 69.5054 320.027 68.5421Z" fill="#080B09"/>
<path d="M311.341 66.5858C311.551 65.6225 311.21 64.7296 310.579 64.5916C309.948 64.4537 309.265 65.1229 309.055 66.0866C308.845 67.05 309.185 67.9429 309.817 68.0808C310.448 68.2187 311.13 67.5496 311.341 66.5858Z" fill="#080B09"/>
<path d="M313.058 69.1442C313.058 69.1442 314.137 71.2217 312.578 71.2533C311.089 71.2325 310.221 72.1062 311.723 73.3725" stroke="#93523E" stroke-width="1.07832" stroke-linecap="round"/>
<path d="M311.954 75.2933L311.96 75.2941L311.967 75.2946C312.891 75.3608 314.735 75.4937 315.962 75.6025H315.964C316 75.6054 316.034 75.6179 316.063 75.6387C316.093 75.66 316.115 75.6883 316.129 75.7216C316.143 75.7546 316.148 75.7908 316.143 75.8262C316.138 75.8604 316.124 75.8929 316.103 75.92C315.833 76.2171 315.478 76.5704 315.083 76.875C314.685 77.1829 314.259 77.4304 313.85 77.5287C313.449 77.6254 313.071 77.5783 312.732 77.3071C312.384 77.0271 312.051 76.4883 311.802 75.5404L311.798 75.5241L311.791 75.5087C311.78 75.4837 311.776 75.4558 311.779 75.4287C311.782 75.4012 311.792 75.3754 311.809 75.3533C311.826 75.3312 311.848 75.3142 311.873 75.3037C311.899 75.2929 311.926 75.2896 311.954 75.2933Z" fill="#93523E" stroke="#93523E"/>
<path d="M323.053 65.3671L322.967 65.5416C322.863 65.8071 322.658 66.0204 322.398 66.1358C322.137 66.2508 321.842 66.2583 321.576 66.1562L317.05 64.2829C316.827 64.2012 316.643 64.0387 316.534 63.8279C316.425 63.6171 316.4 63.3729 316.462 63.1441C316.494 63.0021 316.555 62.8683 316.643 62.7521C316.73 62.6354 316.841 62.5391 316.968 62.4687C317.095 62.3983 317.236 62.3554 317.381 62.3437C317.526 62.3317 317.672 62.3504 317.809 62.3992L322.422 64.0983C322.548 64.1379 322.665 64.2029 322.765 64.2887C322.866 64.375 322.948 64.4804 323.007 64.5987C323.066 64.7171 323.1 64.8462 323.108 64.9783C323.116 65.1104 323.097 65.2425 323.053 65.3671Z" fill="#080B09"/>
<path d="M307.781 61.1533L312.686 60.8229C312.831 60.8146 312.976 60.8375 313.112 60.89C313.248 60.9425 313.371 61.0229 313.473 61.1262C313.575 61.2296 313.655 61.3537 313.706 61.49C313.757 61.6262 313.778 61.7717 313.768 61.9171C313.764 62.1542 313.671 62.3812 313.507 62.5529C313.343 62.7246 313.121 62.8283 312.884 62.8441L308.013 63.3662C307.73 63.3892 307.448 63.2992 307.23 63.115C307.013 62.9312 306.877 62.6687 306.852 62.385L306.818 62.1933C306.811 62.0612 306.83 61.9287 306.875 61.8046C306.92 61.68 306.989 61.5658 307.079 61.4687C307.169 61.3716 307.277 61.2937 307.398 61.2396C307.519 61.1854 307.649 61.1562 307.781 61.1533Z" fill="#080B09"/>
<path d="M357.592 103.902C351.433 98.2871 349.617 101.732 347.837 102.176C347.837 102.176 341.908 104.285 343.208 109.378C344.583 114.767 359.362 149.791 359.362 149.791L378.012 145.376L376.321 140.492L372.837 130.431L369.117 119.674L368.729 118.384L364.208 104.172C364.208 104.172 360.8 106.913 357.592 103.902Z" fill="#5661AE"/>
<path d="M360.625 114.799C365.154 110.921 365.683 104.105 361.804 99.5758C357.925 95.0458 351.108 94.5175 346.579 98.3954C342.05 102.273 341.521 109.089 345.4 113.619C349.279 118.149 356.092 118.677 360.625 114.799Z" fill="#5661AE"/>
<path d="M359.221 144.869L342.725 189.496C342.637 189.77 342.654 190.067 342.771 190.331C342.887 190.594 343.096 190.805 343.363 190.922L351.571 194.529C351.967 194.697 352.412 194.712 352.817 194.572C353.221 194.432 353.562 194.145 353.767 193.769L376.929 151.501L359.221 144.869Z" fill="#5661AE"/>
<path d="M368.446 156.747C373.729 156.747 378.012 152.463 378.012 147.18C378.012 141.896 373.729 137.612 368.446 137.612C363.162 137.612 358.879 141.896 358.879 147.18C358.879 152.463 363.162 156.747 368.446 156.747Z" fill="#5661AE"/>
<path d="M110.126 254.21H146.07C146.07 258.176 144.495 261.979 141.69 264.783C138.886 267.587 135.083 269.162 131.118 269.162H125.078C121.113 269.162 117.309 267.587 114.505 264.783C111.701 261.979 110.126 258.176 110.126 254.21Z" fill="#E7EFFF"/>
<path d="M128.896 269.162H127.3V341.034H128.896V269.162Z" fill="#5CA4E6"/>
<path d="M127.3 341.034L105.391 348.133H150.465L128.896 341.034H127.3Z" fill="#5CA4E6"/>
<path d="M56.1275 205.07L17.14 345.026H25.0821L70.1454 205.07H56.1275Z" fill="#E7EFFF"/>
<path d="M56.1275 205.07L53.265 215.345L68.2029 211.102L70.1454 205.07H56.1275Z" fill="#96BAFD"/>
<path d="M388.487 205.07L427.475 345.026H419.533L374.467 205.07H388.487Z" fill="#D1E8F7"/>
<path d="M388.487 205.07L390.675 212.925L376.487 211.341L374.467 205.07H388.487Z" fill="#5CA4E6"/>
<path d="M117.545 105.667C117.545 105.667 122.787 115.127 124.605 119.031C126.424 122.935 127.045 127.146 124.017 129.085C119.897 131.722 115.338 131.136 110.425 130.587C106.171 130.112 100.842 118.144 101.495 115.206C102.148 112.267 109.544 100.481 117.545 105.667Z" fill="#FFCCB3"/>
<path d="M121.453 116.51C121.835 116.201 121.776 115.495 121.321 114.932C120.866 114.37 120.188 114.163 119.806 114.472C119.425 114.781 119.484 115.487 119.939 116.05C120.393 116.612 121.072 116.818 121.453 116.51Z" fill="#080B09"/>
<path d="M115.806 115.071L119.806 112.227C119.709 112.113 119.588 112.022 119.453 111.957C119.318 111.894 119.171 111.859 119.021 111.855C118.872 111.851 118.723 111.879 118.585 111.936C118.447 111.994 118.322 112.079 118.219 112.187L115.569 114.874C115.475 114.95 115.665 115.185 115.806 115.071Z" fill="#080B09"/>
<path d="M123.849 122.381C123.312 122.715 122.692 122.892 122.06 122.892C121.427 122.892 120.807 122.715 120.27 122.381" stroke="#EF6A77" stroke-miterlimit="10" stroke-linecap="round"/>
<path d="M113.785 111.341L122.35 107.009C122.35 107.009 119.244 96.9054 107.865 95.85C99.5171 95.0754 91.7579 99.6779 88.7512 106.868C85.7442 114.058 88.3154 125.905 95.9412 128.749C102.392 131.154 102.184 137.557 102.184 137.557L111.629 125.171C111.629 125.171 105.095 121.992 106.662 118.111C108.786 112.85 114.124 118.932 114.124 118.932L110.512 108.419L113.785 111.341Z" fill="#1F2D49"/>
<path d="M122.837 115.491C122.837 115.491 124.265 117.352 125.13 117.711C125.994 118.07 125.22 119.392 124.645 119.576C124.069 119.76 122.508 116.37 122.837 115.491Z" fill="#FFCCB3"/>
<path d="M87.525 125.64C93.1304 125.64 97.6742 121.096 97.6742 115.491C97.6742 109.886 93.1304 105.342 87.525 105.342C81.92 105.342 77.3759 109.886 77.3759 115.491C77.3759 121.096 81.92 125.64 87.525 125.64Z" fill="#0D1B33"/>
<path d="M86.4025 126.086C92.0079 126.086 96.5516 121.542 96.5516 115.937C96.5516 110.332 92.0079 105.788 86.4025 105.788C80.7975 105.788 76.2533 110.332 76.2533 115.937C76.2533 121.542 80.7975 126.086 86.4025 126.086Z" fill="#1F2D49"/>
<path d="M185.948 19.3325H80.9529C79.0858 19.3325 77.572 20.8462 77.572 22.7133V86.7025C77.572 88.5696 79.0858 90.0833 80.9529 90.0833H185.948C187.815 90.0833 189.329 88.5696 189.329 86.7025V22.7133C189.329 20.8462 187.815 19.3325 185.948 19.3325Z" fill="#FEBB94"/>
<path d="M150.2 104.365H155.814" stroke="#D4DCF4" stroke-width="12" stroke-miterlimit="10" stroke-linecap="round"/>
<path d="M168.17 104.365H220.443" stroke="#5661AE" stroke-width="12" stroke-miterlimit="10" stroke-linecap="round"/>
<path d="M150.2 116.661H155.814" stroke="#D4DCF4" stroke-width="12" stroke-miterlimit="10" stroke-linecap="round"/>
<path d="M168.17 116.661H192.508" stroke="#5661AE" stroke-width="12" stroke-miterlimit="10" stroke-linecap="round"/>
<path d="M150.2 129.172H155.814" stroke="#D4DCF4" stroke-width="12" stroke-miterlimit="10" stroke-linecap="round"/>
<path d="M168.17 129.172H210.025" stroke="#5661AE" stroke-width="12" stroke-miterlimit="10" stroke-linecap="round"/>
<path d="M85.0037 57.2908C85.0037 57.2908 94.2562 55.3421 97.1908 59.8416C100.125 64.3412 103.06 72.7942 109.712 71.6979C116.364 70.6021 119.574 48.4933 126.226 48.6887C132.877 48.8846 131.82 63.3633 139.058 63.5587C146.297 63.7546 144.28 55.4671 149.113 55.6937C154.975 55.9683 154.318 73.1454 161.948 73.3408C169.578 73.5367 168.796 50.6466 180.339 51.0379" stroke="white" stroke-width="6.35676" stroke-miterlimit="10" stroke-linecap="round"/>
<path d="M87.9541 30.0429H106.427" stroke="white" stroke-width="10.0826" stroke-miterlimit="10" stroke-linecap="round"/>
<path opacity="0.4" d="M87.9541 38.6638H126.129" stroke="white" stroke-width="10.0826" stroke-miterlimit="10" stroke-linecap="round"/>
<path opacity="0.4" d="M236.202 66.7508C242.834 66.7508 248.21 61.3741 248.21 54.7417C248.21 48.1096 242.834 42.7329 236.202 42.7329C229.569 42.7329 224.193 48.1096 224.193 54.7417C224.193 61.3741 229.569 66.7508 236.202 66.7508Z" fill="white"/>
<path d="M232.486 51.4354V59.0575C232.486 59.2687 232.541 59.4766 232.646 59.66C232.751 59.8437 232.901 59.9971 233.083 60.1046C233.265 60.2125 233.471 60.2708 233.682 60.2746C233.894 60.2783 234.102 60.2271 234.288 60.1254L241.255 56.3146C241.447 56.2096 241.607 56.0554 241.718 55.8675C241.83 55.6796 241.888 55.465 241.888 55.2467C241.888 55.0279 241.83 54.8137 241.718 54.6258C241.607 54.4379 241.447 54.2833 241.255 54.1783L234.288 50.3675C234.102 50.2662 233.894 50.2146 233.682 50.2183C233.471 50.2221 233.265 50.2808 233.083 50.3883C232.901 50.4962 232.751 50.6492 232.646 50.8329C232.542 51.0167 232.486 51.2242 232.486 51.4354Z" fill="white"/>
<path d="M76.5116 0.416656H279.573C281.069 0.416656 282.503 1.01082 283.561 2.06874C284.619 3.12624 285.213 4.56082 285.213 6.05666V14.5529H70.8716V6.05666C70.8716 4.56082 71.4658 3.12624 72.5237 2.06874C73.5812 1.01082 75.0158 0.416656 76.5116 0.416656Z" fill="#5CA4E6"/>
<path d="M407.104 198.302H347.238V205.07H407.104V198.302Z" fill="#96BAFD"/>
<path d="M334.754 205.07L373.742 345.026H365.8L320.737 205.07H334.754Z" fill="#E7EFFF"/>
<path d="M334.755 205.07L337.617 215.345L322.679 211.102L320.737 205.07H334.755Z" fill="#5CA4E6"/>
<path d="M385.233 84.6562C401.475 84.6562 414.642 71.4892 414.642 55.2467C414.642 39.0038 401.475 25.8367 385.233 25.8367C368.987 25.8367 355.821 39.0038 355.821 55.2467C355.821 71.4892 368.987 84.6562 385.233 84.6562Z" fill="#FEBB94"/>
<path d="M395.712 54.5317C395.712 52.6296 395.196 50.7629 394.217 49.1321C393.237 47.5012 391.833 46.1675 390.154 45.2737C388.475 44.3796 386.583 43.9591 384.683 44.0571C382.783 44.155 380.946 44.7675 379.371 45.8296C377.792 46.8916 376.533 48.3625 375.725 50.0854C374.917 51.8083 374.596 53.7179 374.792 55.6104C374.987 57.5025 375.692 59.3058 376.833 60.8271C377.975 62.3487 379.512 63.5312 381.275 64.2479V67.6896H389.175V64.2479C391.108 63.4617 392.762 62.1175 393.925 60.3867C395.092 58.6562 395.712 56.6175 395.712 54.5317Z" stroke="white" stroke-width="3.71807" stroke-linecap="round" stroke-linejoin="round"/>
<path d="M381.275 67.6896H389.204V69.3775C389.204 70.0925 388.921 70.7783 388.412 71.2842C387.908 71.79 387.221 72.0742 386.508 72.0742H383.971C383.254 72.0742 382.571 71.79 382.062 71.2842C381.558 70.7783 381.275 70.0925 381.275 69.3775V67.6896Z" stroke="white" stroke-width="3.71807" stroke-linecap="round" stroke-linejoin="round"/>
<path d="M383.454 67.6895V55.6491C383.454 55.3608 383.337 55.0846 383.133 54.8808C382.929 54.6771 382.654 54.5625 382.367 54.5625H382.333C382.046 54.5625 381.767 54.6771 381.567 54.8808C381.362 55.0846 381.246 55.3608 381.246 55.6491C381.246 55.7916 381.275 55.9329 381.329 56.065C381.383 56.1966 381.462 56.3162 381.567 56.4175C381.667 56.5183 381.787 56.5983 381.917 56.6529C382.05 56.7075 382.192 56.7354 382.333 56.7354H388.117C388.258 56.7354 388.4 56.7075 388.533 56.6529C388.663 56.5983 388.783 56.5183 388.883 56.4175C388.987 56.3162 389.067 56.1966 389.121 56.065C389.175 55.9329 389.204 55.7916 389.204 55.6491C389.204 55.3608 389.087 55.0846 388.883 54.8808C388.679 54.6771 388.404 54.5625 388.117 54.5625H388.021C387.733 54.5625 387.458 54.6771 387.254 54.8808C387.05 55.0846 386.933 55.3608 386.933 55.6491V67.6895" stroke="white" stroke-width="3.71807" stroke-linecap="round" stroke-linejoin="round"/>
<path d="M385.237 38.4187V41.1104" stroke="white" stroke-width="3.71807" stroke-linecap="round" stroke-linejoin="round"/>
<path d="M375.533 41.0117L376.879 43.3429" stroke="white" stroke-width="3.71807" stroke-linecap="round" stroke-linejoin="round"/>
<path d="M368.429 48.1087L370.758 49.4546" stroke="white" stroke-width="3.71807" stroke-linecap="round" stroke-linejoin="round"/>
<path d="M402.033 48.1317L399.704 49.4775" stroke="white" stroke-width="3.71807" stroke-linecap="round" stroke-linejoin="round"/>
<path d="M394.937 41.025L393.592 43.3558" stroke="white" stroke-width="3.71807" stroke-linecap="round" stroke-linejoin="round"/>
<path d="M62.0275 19.3325H40.2079C38.6846 19.3325 37.45 20.5675 37.45 22.0908V43.91C37.45 45.4333 38.6846 46.6683 40.2079 46.6683H62.0275C63.5509 46.6683 64.7854 45.4333 64.7854 43.91V22.0908C64.7854 20.5675 63.5509 19.3325 62.0275 19.3325Z" fill="#1C85E8"/>
<path d="M62.0275 53.0829H40.2079C38.6846 53.0829 37.45 54.3179 37.45 55.8408V77.6604C37.45 79.1838 38.6846 80.4183 40.2079 80.4183H62.0275C63.5509 80.4183 64.7854 79.1838 64.7854 77.6604V55.8408C64.7854 54.3179 63.5509 53.0829 62.0275 53.0829Z" fill="#1C85E8"/>
<path d="M60.0129 63.0663C59.9987 62.325 59.8579 61.5913 59.5975 60.8967C59.3671 60.3025 59.0154 59.7629 58.565 59.3121C58.1141 58.8617 57.5745 58.51 56.9804 58.2796C56.2858 58.0196 55.552 57.8787 54.8108 57.8642C53.8533 57.8187 53.5495 57.8079 51.1212 57.8079C48.6929 57.8079 48.3887 57.8187 47.435 57.8604C46.6933 57.875 45.96 58.0154 45.2654 58.2763C44.6712 58.5063 44.1316 58.8579 43.6808 59.3088C43.2304 59.7592 42.8787 60.2992 42.6483 60.8933C42.3879 61.5875 42.2475 62.3213 42.2329 63.0629C42.1875 64.0204 42.1766 64.3242 42.1766 66.7525C42.1766 69.1808 42.1875 69.4846 42.2291 70.4383C42.2437 71.18 42.3841 71.9137 42.645 72.6083C42.8754 73.2025 43.2266 73.7421 43.6775 74.1929C44.1279 74.6433 44.6675 74.995 45.2621 75.225C45.9562 75.4854 46.69 75.6262 47.4316 75.6408C48.3854 75.6829 48.6895 75.6933 51.1179 75.6933C53.5458 75.6933 53.85 75.6829 54.8037 75.6408C55.5454 75.6262 56.2791 75.4858 56.9733 75.225C57.5679 74.9954 58.1075 74.6437 58.5583 74.1933C59.0091 73.7425 59.3604 73.2025 59.5904 72.6083C59.8508 71.9137 59.9912 71.18 60.0062 70.4383C60.0479 69.4846 60.0587 69.1808 60.0587 66.7525C60.0587 64.3242 60.055 64.0204 60.0129 63.0663ZM58.4025 70.3688C58.3966 70.9354 58.2925 71.4971 58.095 72.0283C57.9458 72.4142 57.7179 72.7642 57.4254 73.0567C57.1329 73.3492 56.7825 73.5771 56.3971 73.7262C55.8654 73.9237 55.3041 74.0275 54.7375 74.0337C53.7941 74.0758 53.5112 74.0862 51.1245 74.0862C48.7383 74.0862 48.452 74.0758 47.512 74.0337C46.945 74.0279 46.3837 73.9242 45.8525 73.7262C45.4641 73.5837 45.1129 73.3558 44.8254 73.0587C44.5291 72.7704 44.3012 72.4196 44.1579 72.0317C43.9604 71.5004 43.8566 70.9387 43.8504 70.3721C43.8083 69.4287 43.7979 69.1458 43.7979 66.7596C43.7979 64.3729 43.8083 64.0867 43.8504 63.1467C43.8562 62.58 43.96 62.0183 44.1579 61.4871C44.3004 61.0983 44.5295 60.7467 44.8287 60.46C45.117 60.1638 45.4679 59.9358 45.8558 59.7925C46.387 59.5954 46.9487 59.4913 47.5154 59.485C48.4587 59.4433 48.742 59.4329 51.1283 59.4329C53.5179 59.4329 53.8008 59.4433 54.7408 59.485C55.3075 59.4908 55.8691 59.595 56.4004 59.7925C56.7887 59.935 57.1395 60.1629 57.4275 60.46C57.7237 60.7483 57.9516 61.0996 58.095 61.4871C58.2925 62.0187 58.3962 62.58 58.4025 63.1467C58.4445 64.09 58.455 64.3729 58.455 66.7596C58.455 69.1458 58.4445 69.4254 58.4025 70.3688Z" fill="white"/>
<path d="M51.1212 62.1579C50.2125 62.1579 49.3242 62.4275 48.5687 62.9325C47.8133 63.4371 47.2241 64.1546 46.8766 64.9942C46.5287 65.8337 46.4379 66.7575 46.615 67.6487C46.7925 68.54 47.23 69.3587 47.8725 70.0012C48.515 70.6437 49.3337 71.0812 50.225 71.2587C51.1162 71.4358 52.04 71.345 52.8796 70.9971C53.7191 70.6496 54.4366 70.0604 54.9412 69.305C55.4462 68.5496 55.7158 67.6612 55.7158 66.7525C55.7154 65.5342 55.2312 64.3654 54.3696 63.5042C53.5079 62.6425 52.3396 62.1583 51.1212 62.1579ZM51.1212 69.7329C50.5316 69.7329 49.9554 69.5579 49.4654 69.2304C48.9754 68.9029 48.5933 68.4375 48.3679 67.8929C48.1421 67.3483 48.0833 66.7492 48.1983 66.1708C48.3133 65.5929 48.5971 65.0617 49.0137 64.645C49.4308 64.2283 49.9616 63.9446 50.54 63.8296C51.1179 63.7146 51.7171 63.7733 52.2616 63.9992C52.8062 64.2246 53.2717 64.6067 53.5992 65.0967C53.9267 65.5867 54.1017 66.1629 54.1017 66.7525C54.1012 67.5429 53.7875 68.3008 53.2283 68.8596C52.6696 69.4187 51.9116 69.7325 51.1212 69.7329Z" fill="white"/>
<path d="M56.97 61.9762C56.97 62.1883 56.9071 62.3958 56.7892 62.5725C56.6713 62.7487 56.5038 62.8862 56.3079 62.9675C56.1121 63.0487 55.8963 63.07 55.6884 63.0283C55.48 62.9871 55.2892 62.885 55.1388 62.735C54.9888 62.585 54.8867 62.3937 54.8454 62.1858C54.8038 61.9775 54.825 61.7621 54.9063 61.5658C54.9875 61.37 55.125 61.2025 55.3013 61.0846C55.4779 60.9667 55.685 60.9037 55.8975 60.9037C56.1817 60.9037 56.4546 61.0167 56.6559 61.2179C56.8571 61.4192 56.97 61.6917 56.97 61.9762Z" fill="white"/>
<path d="M53.8267 28.2587H55.3846V25.545C54.6308 25.4625 53.8729 25.4221 53.115 25.425C50.8683 25.425 49.3296 26.8379 49.3296 29.435V31.8246H46.8508V34.8583H49.3296V42.4912H52.3688V34.8592H54.7475L55.125 31.8254H52.3683V29.7354C52.3687 28.8587 52.605 28.2587 53.8267 28.2587Z" fill="white"/>
<defs>
<linearGradient id="paint0_linear_2492_998" x1="172.706" y1="0.0724895" x2="195.345" y2="309.092" gradientUnits="userSpaceOnUse">
<stop stop-color="white"/>
<stop offset="1" stop-color="#94B9FF"/>
</linearGradient>
<linearGradient id="paint1_linear_2492_998" x1="216.225" y1="198.286" x2="216.255" y2="212.803" gradientUnits="userSpaceOnUse">
<stop stop-color="white"/>
<stop offset="1" stop-color="#94B9FF"/>
</linearGradient>
<linearGradient id="paint2_linear_2492_998" x1="112.078" y1="168.175" x2="135.289" y2="349.321" gradientUnits="userSpaceOnUse">
<stop stop-color="white"/>
<stop offset="1" stop-color="#94B9FF"/>
</linearGradient>
</defs>
</svg>
